# AST/ASF file generated using VICON BodyLanguage
# -----------------------------------------------
:version 1.10
:name VICON
:units
  mass 1.0
  length 0.45
  angle deg
:documentation
   .ast/.asf automatically generated from VICON data using
   VICON BodyBuilder and BodyLanguage model FoxedUp or BRILLIANT.MOD
:root
   order TX TY TZ RX RY RZ
   axis XYZ
   position 0 0 0  
   orientation 0 0 0 
:bonedata
  begin
     id 1 
     name lhipjoint
     direction 0.573633 -0.743009 0.344793 
     length 2.46257 
     axis 0 0 0  XYZ
  end
  begin
     id 2 
     name lfemur
     direction 0.34202 -0.939693 0  
     length 7.3842  
     axis 0 0 20  XYZ
    dof rx ry rz
    limits (-160.0 20.0)
           (-70.0 70.0)
           (-60.0 70.0)
  end
  begin
     id 3 
     name ltibia
     direction 0.34202 -0.939693 0   
     length 7.50407   
     axis 0 0 20   XYZ
    dof rx
    limits (-10.0 170.0)
  end
  begin
     id 4 
     name lfoot
     direction 0.110749 -0.304281 0.946123   
     length 1.95925   
     axis -90 7.62852e-016 20   XYZ
    dof rx rz
    limits (-45.0 90.0)
           (-70.0 20.0)
  end
  begin
     id 5 
     name ltoes
     direction 1.53554e-011 -4.21843e-011 1   
     length 0.978318   
     axis -90 7.62852e-016 20   XYZ
    dof rx
    limits (-90.0 20.0)
  end
  begin
     id 6 
     name rhipjoint
     direction -0.488109 -0.791693 0.367385   
     length 2.31113  
     axis 0 0 0  XYZ 
  end
  begin
     id 7 
     name rfemur
     direction -0.34202 -0.939693 0   
     length 7.40965   
     axis 0 0 -20   XYZ
    dof rx ry rz
    limits (-160.0 20.0)
           (-70.0 70.0)
           (-70.0 60.0)
  end
  begin
     id 8 
     name rtibia
     direction -0.34202 -0.939693 0   
     length 7.55548   
     axis 0 0 -20   XYZ
    dof rx
    limits (-10.0 170.0)
 end
 begin
     id 9 
     name rfoot
     direction -0.127594 -0.350561 0.927808   
     length 2.07199  
     axis -90 -7.62852e-016 -20   XYZ
    dof rx rz
    limits (-45.0 90.0)
           (-20.0 70.0)
  end
  begin
     id 10 
     name rtoes
     direction -1.53542e-011 -4.21909e-011 1   
     length 1.02667   
     axis -90 -7.62852e-016 -20   XYZ
    dof rx
    limits (-90.0 20.0)
  end
  begin
     id 11 
     name lowerback
     direction -0.0103342 0.997298 -0.0727278   
     length 2.02836   
     axis 0 0 0   XYZ
    dof rx ry rz
    limits (-20.0 45.0)
           (-30.0 30.0)
           (-30.0 30.0)
  end
  begin
     id 12 
     name upperback
     direction 0.0171146 0.999786 -0.011606   
     length 2.03179   
     axis 0 0 0   XYZ
    dof rx ry rz
    limits (-20.0 45.0)
           (-30.0 30.0)
           (-30.0 30.0)
  end
  begin
     id 13 
     name thorax
     direction 0.0216927 0.999513 0.0224343   
     length 2.03882   
     axis 0 0 0   XYZ
    dof rx ry rz
    limits (-20.0 45.0)
           (-30.0 30.0)
           (-30.0 30.0)
  end
  begin
     id 14 
     name lowerneck
     direction 0.000989287 0.993907 0.110221   
     length 1.75428   
     axis 0 0 0   XYZ
    dof rx ry rz
    limits (-20.0 45.0)
           (-30.0 30.0)
           (-30.0 30.0)
  end
  begin
     id 15 
     name upperneck
     direction -0.0172474 0.994813 -0.100253   
     length 1.77058   
     axis 0 0 0   XYZ
    dof rx ry rz
    limits (-20.0 45.0)
           (-30.0 30.0)
           (-30.0 30.0)
  end
  begin
     id 16
     name head
     direction -0.00486455 0.99894 -0.0457663  
     length 1.77427  
     axis 0 0 0   XYZ
    dof rx ry rz
    limits (-20.0 45.0)
           (-30.0 30.0)
           (-30.0 30.0)
  end
  begin
     id 17 
     name lclavicle
     direction 0.927314 0.333734 -0.169441  
     length 3.97584  
     axis 0 0 0   XYZ
    dof ry rz
    limits (-20.0 10.0)
           (0.0 20.0)
  end
  begin
     id 18 
     name lhumerus
     direction 1 -4.48965e-011 -3.25313e-028   
     length 4.76468   
     axis 180 -30 -90   XYZ
    dof rx ry rz
    limits (-60.0 90.0)
           (-90.0 90.0)
           (-90.0 90.0)
  end
  begin
     id 19
     name lradius
     direction 1 -4.48969e-011 -2.8465e-028   
     length 3.52712   
     axis -180 -30 -90   XYZ
    dof rx
    limits (-10.0 170.0)
  end
  begin
     id 20
     name lwrist
     direction 1 -4.4896e-011 -7.78665e-028   
     length 1.76356   
     axis 1.91374e-015 90 90   XYZ
    dof ry
    limits (-180.0 0.0)
 end
  begin
     id 21 
     name lhand
     direction 1 -4.48959e-011 -1.55733e-027   
     length 0.859564   
     axis 9.9371e-016 90 90   XYZ
    dof rx rz
    limits (-90.0 90.0)
           (-45.0 45.0)
  end
  begin
     id 22 
     name lfingers
     direction 1 -4.48965e-011 -3.11466e-027   
     length 0.693002   
     axis 1.98742e-015 90 90   XYZ
    dof rx
    limits (0.0 90.0)
  end
  begin
     id 23
     name lthumb
     direction 0.707107 -6.34948e-011 0.707107   
     length 0.995017   
     axis -90 45 2.85299e-015   XYZ
    dof rx rz
    limits (-45.0 45.0)
           (-45.0 45.0)
  end
  begin
     id 24 
     name rclavicle
     direction -0.899388 0.348209 -0.264294   
     length 3.68366  
     axis 0 0 0   XYZ 
    dof ry rz
    limits (-10.0 20.0)
           (-20.0 0.0)
  end
  begin
     id 25 
     name rhumerus
     direction -1 -4.48965e-011 -3.01536e-027  
     length 4.90577   
     axis 180 30 90   XYZ
    dof rx ry rz
    limits (-90.0 60.0)
           (-90.0 90.0)
           (-90.0 90.0)
  end
  begin
     id 26 
     name rradius
     direction -1 -4.48966e-011 3.93291e-027   
     length 3.42692   
     axis -180 30 90   XYZ
    dof rx
    limits (-10.0 170.0)
  end
  begin
     id 27 
     name rwrist
     direction -1 -4.48969e-011 -7.78665e-028   
     length 1.71346   
     axis 1.91374e-015 -90 -90   XYZ
    dof ry
    limits (-180.0 0.0)
  end
  begin
     id 28
     name rhand
     direction -1 -4.48967e-011 -1.55733e-027   
     length 0.740957   
     axis 9.9371e-016 -90 -90   XYZ
    dof rx rz
    limits (-90.0 90.0)
           (-45.0 45.0)
  end
  begin
     id 29
     name rfingers
     direction -1 -4.48949e-011 -3.11466e-027   
     length 0.597378   
     axis 1.98742e-015 -90 -90   XYZ
    dof rx
    limits (0.0 90.0)
  end
  begin
     id 30
     name rthumb
     direction -0.707107 -6.34931e-011 0.707107   
     length 0.857719   
     axis -90 -45 -2.85299e-015   XYZ
    dof rx rz
    limits (-45.0 45.0)
           (-45.0 45.0)
  end
:hierarchy
  begin
    root lhipjoint rhipjoint lowerback
    lhipjoint lfemur
    lfemur ltibia
    ltibia lfoot
    lfoot ltoes
    rhipjoint rfemur
    rfemur rtibia
    rtibia rfoot
    rfoot rtoes
    lowerback upperback
    upperback thorax
    thorax lowerneck lclavicle rclavicle
    lowerneck upperneck
    upperneck head
    lclavicle lhumerus
    lhumerus lradius
    lradius lwrist
    lwrist lhand lthumb
    lhand lfingers
    rclavicle rhumerus
    rhumerus rradius
    rradius rwrist
    rwrist rhand rthumb
    rhand rfingers
  end

#!OML:ASF E:\I on waltz\AllaLogoMonkeySwing\Project 1\Capture day 1\Session 1\Subject1.ASF
:FULLY-SPECIFIED
:DEGREES
46
root 0.179704 17.9586 -3.47871 1.8528 1.65958 -1.31533
lowerback 2.85695 -0.601985 -1.53597
upperback -0.963378 -0.825179 1.52683
thorax -2.54758 -0.374559 2.47292
lowerneck -14.3932 -1.61388 -2.7973
upperneck 26.3332 -1.80222 0.853742
head 10.9025 -0.998667 0.540947
rclavicle 1.15357e-014 2.04748e-014
rhumerus -29.2975 -25.658 -77.0226
rradius 18.2283
rwrist 12.9621
rhand -5.7055 -35.6239
rfingers 7.12502
rthumb 20.1154 -64.6026
lclavicle 1.15357e-014 2.04748e-014
lhumerus -40.2763 26.0075 77.4204
lradius 32.7209
lwrist -6.49286
lhand -6.46149 -11.1659
lfingers 7.12502
lthumb 19.3887 17.8875
rfemur -1.02703 -0.0722306 19.7107
rtibia 15.0127
rfoot -13.7834 -9.17621
rtoes 12.4501
lfemur 2.55353 1.3482 -17.6647
ltibia 9.57263
lfoot -12.8264 2.98239
ltoes -29.0274
47
root 0.180792 17.958 -3.47792 1.84235 1.6525 -1.32209
lowerback 2.88463 -0.607927 -1.54445
upperback -0.95733 -0.833566 1.53312
thorax -2.55627 -0.378509 2.48494
lowerneck -14.3961 -1.65793 -2.79146
upperneck 26.3306 -1.86091 0.832713
head 10.9031 -1.02749 0.524324
rclavicle 2.23943e-015 1.55052e-014
rhumerus -29.1701 -25.4424 -77.1859
rradius 18.3015
rwrist 12.552
rhand -5.92404 -35.5374
rfingers 7.12502
rthumb 19.9054 -64.538
lclavicle 2.23943e-015 1.55052e-014
lhumerus -40.3092 26.0574 77.3748
lradius 32.5977
lwrist -6.56717
lhand -6.52668 -11.2387
lfingers 7.12502
lthumb 19.326 17.821
rfemur -0.995589 -0.0435086 19.7179
rtibia 14.9816
rfoot -13.7779 -9.17253
rtoes 12.4719
lfemur 2.55956 1.37943 -17.6515
ltibia 9.58702
lfoot -12.8407 2.94366
ltoes -29.3218
48
root 0.18053 17.9572 -3.4769 1.84418 1.59695 -1.33707
lowerback 2.89567 -0.589088 -1.57974
upperback -0.945288 -0.809458 1.5536
thorax -2.55067 -0.365925 2.52478
lowerneck -14.3803 -1.70258 -2.77753
upperneck 26.2898 -1.91063 0.76871
head 10.885 -1.05653 0.492197
rclavicle 7.89858e-015 -1.98785e-016
rhumerus -29.0255 -25.1393 -77.3598
rradius 18.3846
rwrist 12.0528
rhand -6.09654 -35.5457
rfingers 7.12502
rthumb 19.7396 -64.5634
lclavicle 7.89858e-015 -1.98785e-016
lhumerus -40.2948 26.1441 77.3556
lradius 32.4667
lwrist -6.65758
lhand -6.55823 -11.3172
lfingers 7.12502
lthumb 19.2957 17.7455
rfemur -0.997862 0.033293 19.7451
rtibia 14.9765
rfoot -13.763 -9.19918
rtoes 12.5501
lfemur 2.58604 1.38271 -17.6228
ltibia 9.53352
lfoot -12.8131 2.94484
ltoes -29.4152
49
root 0.180696 17.9567 -3.47599 1.87198 1.52435 -1.33336
lowerback 2.87313 -0.57536 -1.62882
upperback -0.929639 -0.792547 1.56807
thorax -2.52202 -0.357097 2.56602
lowerneck -14.3499 -1.74703 -2.89748
upperneck 26.1807 -1.97915 0.898949
head 10.8426 -1.0836 0.550535
rclavicle 1.42411e-014 -1.96797e-014
rhumerus -28.8994 -24.9207 -77.5016
rradius 18.5003
rwrist 11.7652
rhand -6.00881 -35.6903
rfingers 7.12502
rthumb 19.8239 -64.6993
lclavicle 1.42411e-014 -1.96797e-014
lhumerus -40.2961 26.2168 77.3312
lradius 32.3878
lwrist -6.70661
lhand -6.54342 -11.4336
lfingers 7.12502
lthumb 19.3099 17.6277
rfemur -1.04414 0.100835 19.7462
rtibia 14.992
rfoot -13.7758 -9.23617
rtoes 12.6453
lfemur 2.58336 1.38664 -17.6262
ltibia 9.50532
lfoot -12.7721 3.02647
ltoes -29.3791
50
root 0.182722 17.956 -3.47411 1.87597 1.46052 -1.36092
lowerback 2.87814 -0.571447 -1.59858
upperback -0.921142 -0.786164 1.57083
thorax -2.51678 -0.354513 2.55151
lowerneck -14.3978 -1.80708 -2.99851
upperneck 26.1481 -2.07566 1.03833
head 10.845 -1.1205 0.604462
rclavicle 9.405e-015 -6.75868e-015
rhumerus -28.8695 -24.811 -77.6086
rradius 18.6789
rwrist 11.637
rhand -5.86249 -35.8586
rfingers 7.12502
rthumb 19.9645 -64.853
lclavicle 9.405e-015 -6.75868e-015
lhumerus -40.3682 26.1954 77.3112
lradius 32.4343
lwrist -6.67588
lhand -6.50318 -11.4673
lfingers 7.12502
lthumb 19.3486 17.5901
rfemur -1.05532 0.0818952 19.7684
rtibia 15.0021
rfoot -13.7647 -9.17656
rtoes 12.3652
lfemur 2.61066 1.40026 -17.6071
ltibia 9.47941
lfoot -12.7622 3.10013
ltoes -29.1499
51
root 0.185002 17.9556 -3.47277 1.87742 1.42079 -1.42104
lowerback 2.90636 -0.560209 -1.51111
upperback -0.91729 -0.76815 1.56539
thorax -2.53082 -0.346803 2.49615
lowerneck -14.3358 -1.88351 -3.04568
upperneck 26.0079 -2.19657 1.12225
head 10.785 -1.17005 0.626765
rclavicle -2.39784e-015 9.74045e-015
rhumerus -28.869 -24.7869 -77.6772
rradius 18.8106
rwrist 11.6009
rhand -5.81157 -35.8848
rfingers 7.12502
rthumb 20.0135 -64.8741
lclavicle -2.39784e-015 9.74045e-015
lhumerus -40.4266 26.1218 77.3122
lradius 32.5167
lwrist -6.64663
lhand -6.45985 -11.4175
lfingers 7.12502
lthumb 19.3903 17.6357
rfemur -1.04934 0.0630334 19.8303
rtibia 14.988
rfoot -13.7349 -9.09542
rtoes 12.2834
lfemur 2.63174 1.42383 -17.5443
ltibia 9.44579
lfoot -12.7639 3.09946
ltoes -28.9196
52
root 0.187245 17.9558 -3.47208 1.90484 1.37759 -1.41058
lowerback 2.91425 -0.55149 -1.50585
upperback -0.917927 -0.756719 1.55117
thorax -2.53678 -0.341215 2.47808
lowerneck -14.0978 -1.96419 -3.18757
upperneck 25.7021 -2.32319 1.28067
head 10.632 -1.22299 0.692575
rclavicle -2.1183e-015 -6.75868e-015
rhumerus -28.8186 -24.8195 -77.7089
rradius 18.8212
rwrist 11.6848
rhand -5.81192 -35.8444
rfingers 7.12502
rthumb 20.0131 -64.8338
lclavicle -2.1183e-015 -6.75868e-015
lhumerus -40.449 26.0989 77.315
lradius 32.5407
lwrist -6.67998
lhand -6.44683 -11.3799
lfingers 7.12502
lthumb 19.4028 17.6721
rfemur -1.06743 0.103371 19.8076
rtibia 14.9677
rfoot -13.7589 -9.05438
rtoes 12.5491
lfemur 2.6072 1.46451 -17.5681
ltibia 9.446
lfoot -12.7626 3.11083
ltoes -29.0788
53
root 0.189626 17.9553 -3.46994 1.93471 1.30827 -1.36765
lowerback 2.89731 -0.547329 -1.55973
upperback -0.916151 -0.753096 1.55292
thorax -2.52495 -0.338704 2.50978
lowerneck -13.9039 -2.09047 -3.40715
upperneck 25.4449 -2.48407 1.40394
head 10.5088 -1.30361 0.754002
rclavicle -1.5763e-014 -9.34288e-015
rhumerus -28.7635 -24.8747 -77.6985
rradius 18.7985
rwrist 11.8596
rhand -5.73937 -35.8031
rfingers 7.12502
rthumb 20.0829 -64.7852
lclavicle -1.5763e-014 -9.34288e-015
lhumerus -40.4648 26.1955 77.2947
lradius 32.5202
lwrist -6.8292
lhand -6.45617 -11.3201
lfingers 7.12502
lthumb 19.3938 17.7328
rfemur -1.09671 0.134935 19.7397
rtibia 14.9698
rfoot -13.776 -8.99576
rtoes 12.498
lfemur 2.59825 1.47396 -17.6427
ltibia 9.43911
lfoot -12.7566 3.19587
ltoes -29.2553
54
root 0.19116 17.9543 -3.46754 1.95101 1.24793 -1.35107
lowerback 2.89289 -0.561669 -1.6194
upperback -0.913718 -0.774125 1.57017
thorax -2.51786 -0.348242 2.5621
lowerneck -13.7242 -2.27355 -3.52404
upperneck 25.1921 -2.68557 1.28193
head 10.3876 -1.42218 0.705477
rclavicle 6.24308e-016 1.82882e-014
rhumerus -28.7408 -24.7942 -77.7403
rradius 18.8403
rwrist 11.937
rhand -5.67222 -35.7465
rfingers 7.12502
rthumb 20.1474 -64.7218
lclavicle 6.24308e-016 1.82882e-014
lhumerus -40.4744 26.3594 77.2395
lradius 32.5018
lwrist -6.98083
lhand -6.41208 -11.3011
lfingers 7.12502
lthumb 19.4362 17.7475
rfemur -1.11801 0.139695 19.7087
rtibia 14.9801
rfoot -13.773 -8.95343
rtoes 12.3987
lfemur 2.61385 1.45917 -17.6793
ltibia 9.43176
lfoot -12.7557 3.23834
ltoes -28.9591
55
root 0.191423 17.9537 -3.46566 1.9696 1.18197 -1.31947
lowerback 2.911 -0.600179 -1.71708
upperback -0.939479 -0.829382 1.57375
thorax -2.55015 -0.373593 2.62404
lowerneck -13.4158 -2.49069 -3.52135
upperneck 24.8263 -2.92074 0.974039
head 10.1969 -1.56699 0.569374
rclavicle -8.6316e-015 -7.7526e-015
rhumerus -28.7615 -24.4515 -77.9
rradius 18.9052
rwrist 11.7239
rhand -5.73318 -35.7604
rfingers 7.12502
rthumb 20.0888 -64.7418
lclavicle -8.6316e-015 -7.7526e-015
lhumerus -40.5296 26.4138 77.1759
lradius 32.5397
lwrist -6.84826
lhand -6.39151 -11.3084
lfingers 7.12502
lthumb 19.456 17.7382
rfemur -1.14472 0.180559 19.6711
rtibia 14.9925
rfoot -13.7735 -8.94143
rtoes 12.4675
lfemur 2.626 1.45421 -17.7243
ltibia 9.41591
lfoot -12.7433 3.26464
ltoes -28.6996
